<svg xmlns="http://www.w3.org/2000/svg" width="25.69" height="20.689" viewBox="0 0 25.69 20.689"><path fill="#1C00AE" d="M20.88 10.225v8.18l-6.05-5.39 3.45-3.07c-.32-.14-.61-.33-.88-.55l-6.46 5.76-9.71-8.66c.03-.03.06-.07.1-.09.15-.12.34-.19.53-.19H15.9c0-.35.04-.68.13-1H1.86c-.12 0-.23.01-.35.04-.04 0-.08.01-.11.02-.06.01-.13.03-.19.07-.04 0-.07.02-.11.04-.08.03-.15.07-.22.11-.11.07-.2.15-.29.23-.04.04-.09.08-.12.13-.05.05-.09.1-.13.15-.01.02-.02.03-.03.05-.07.1-.12.19-.16.3-.02.05-.04.09-.04.14-.08.18-.11.38-.11.58v11.88c0 .21.03.41.11.6 0 .02 0 .04.01.06.01.02.02.03.03.05 0 .02.01.04.01.05.04.09.09.18.15.26.04.07.09.13.14.18.04.06.09.11.14.16.09.08.18.15.29.22.07.05.14.09.22.11.13.07.27.11.41.13.12.03.23.04.35.04h18.16c.12 0 .23-.01.35-.04.1-.01.2-.04.29-.08.05-.01.1-.03.14-.06.18-.08.34-.19.49-.32.06-.07.13-.14.18-.21.05-.06.1-.13.14-.2.02-.03.03-.05.04-.08.04-.07.07-.14.1-.21l.03-.09c.07-.18.1-.37.1-.57v-9.1c-.31.17-.64.29-1 .37zM1 18.405V7.625l6.05 5.39L1 18.405zm19.56 1.22c-.02.01-.04.03-.06.04-.05.04-.1.06-.15.08-.11.05-.22.07-.33.07H1.86c-.19 0-.38-.07-.53-.19-.04-.02-.07-.06-.1-.09l6.56-5.85 2.82 2.51c.09.09.21.13.33.13s.24-.04.33-.13l2.82-2.51 6.56 5.85-.09.09z"/><path opacity=".9" stroke="#1EA863" stroke-width="1.417" stroke-linecap="round" stroke-linejoin="round" stroke-miterlimit="10" d="M19.96 7.695l1.67-1.54 1.97-1.83 1.34-1.24m-4.98 4.61l-.27-.34-.9-1.14-.79-1-.44-.56" fill="none"/></svg>