<svg xmlns="http://www.w3.org/2000/svg" width="22.565" height="17.273" viewBox="0 0 22.565 17.273"><path fill="#1C00AE" d="M20.883 6.683v8.19l-6.05-5.39 3.45-3.08c-.31-.14-.61-.32-.87-.55l-6.47 5.77-9.71-8.66c.03-.03.06-.07.1-.09.15-.12.34-.19.53-.19h14.04c0-.35.04-.68.13-1H1.863c-.12 0-.23.01-.35.04-.04 0-.08.01-.11.02-.06.01-.13.03-.19.07-.04 0-.07.02-.11.04-.08.03-.15.07-.22.11-.11.07-.2.15-.29.23-.04.04-.09.08-.12.13-.05.05-.09.1-.13.15-.01.02-.02.03-.03.05-.07.1-.12.19-.16.3-.02.05-.04.09-.04.14-.08.18-.11.38-.11.58v11.88c0 .21.03.41.11.6 0 .02 0 .04.01.06.01.02.02.03.03.05 0 .02.01.04.01.05.04.09.09.18.15.26.04.07.09.13.14.18.04.06.09.11.14.16.09.08.18.15.29.22.07.05.14.09.22.11.13.07.27.11.41.13.12.03.23.04.35.04h18.16c.12 0 .23-.01.35-.04.1-.01.2-.04.29-.08.05-.01.1-.03.14-.06.18-.08.34-.19.49-.32.06-.07.13-.14.18-.21.05-.06.1-.13.14-.2.02-.03.03-.05.04-.08.04-.07.07-.14.1-.21l.03-.09c.07-.18.1-.37.1-.57v-9.11c-.31.17-.64.29-1 .37zm-19.88 8.19V4.093l6.05 5.39-6.05 5.39zm19.56 1.22c-.02.01-.04.03-.06.04-.05.04-.1.06-.15.08-.11.05-.22.07-.33.07H1.863c-.19 0-.38-.07-.53-.19-.04-.02-.07-.06-.1-.09l6.56-5.85 2.82 2.51c.09.09.21.13.33.13s.24-.04.33-.13l2.82-2.51 6.56 5.85-.09.09z"/><path d="M20.463 3.132l-.44-.45" fill="none"/><path opacity=".8" d="M21.883.772l-1.07 1.1-.79.81-1.86 1.91m3.72 0l-1.42-1.46-.44-.45-.97-1-.89-.91" stroke="#DA1C5C" stroke-width="1.417" stroke-linecap="round" stroke-linejoin="round" stroke-miterlimit="10" fill="none"/></svg>