<svg xmlns="http://www.w3.org/2000/svg" width="21.879" height="15.6" viewBox="0 0 21.879 15.6"><path fill="#B6B7B8" d="M21.78 1.3l-.03-.09c-.03-.09-.07-.17-.11-.25-.01-.01-.01-.01-.01-.02-.05-.08-.1-.15-.16-.22-.05-.08-.12-.15-.18-.21-.15-.13-.31-.25-.49-.33-.04-.02-.09-.04-.14-.06-.06-.03-.12-.05-.18-.06-.03-.01-.07-.02-.11-.02-.12-.03-.23-.04-.35-.04H1.86c-.12 0-.23.01-.35.04-.04 0-.08.01-.11.02-.06.01-.13.03-.19.07-.04 0-.07.02-.11.04C1.02.2.95.24.88.28.77.35.68.43.59.51.55.55.5.59.47.64.42.69.38.74.34.79.33.81.32.82.31.84c-.07.1-.12.19-.16.3-.02.05-.04.09-.04.14-.08.18-.11.38-.11.58v11.88c0 .21.03.41.11.6 0 .02 0 .04.01.06.01.02.02.03.03.05 0 .02.01.04.01.05.04.09.09.18.15.26.04.07.09.13.14.18.04.06.09.11.14.16.09.08.18.15.29.22.07.05.14.09.22.11.13.07.27.11.41.13.12.03.23.04.35.04h18.16c.12 0 .23-.01.35-.04.1-.01.2-.04.29-.08.05-.01.1-.03.14-.06.18-.08.34-.19.49-.32.06-.07.13-.14.18-.21.05-.06.1-.13.14-.2.022-.03.03-.05.04-.08.04-.07.07-.14.1-.21.012-.03.022-.06.03-.09.07-.18.102-.37.102-.57V1.86c-.002-.19-.032-.38-.102-.56zM1.33 1.19c.15-.12.34-.19.53-.19h18.16c.2 0 .39.08.54.19l.09.09-9.71 8.66-9.71-8.66c.03-.03.06-.07.1-.09zm-.33 12V2.41L7.05 7.8 1 13.19zm19.56 1.22c-.02.01-.04.03-.06.04-.05.04-.1.06-.15.08-.11.05-.22.07-.33.07H1.86c-.19 0-.38-.07-.53-.19-.04-.02-.07-.06-.1-.09l6.56-5.85 2.82 2.51c.09.09.21.13.33.13s.24-.04.33-.13l2.82-2.51 6.56 5.85-.09.09zM14.83 7.8l6.05-5.39v10.78L14.83 7.8z" opacity=".95"/></svg>