<svg xmlns="http://www.w3.org/2000/svg" width="21.879" height="24.518" viewBox="0 0 21.879 24.518"><path d="M20.02 24.518H1.858C.833 24.518 0 23.684 0 22.658V9.418c0-.146.064-.286.176-.38L10.658.118c.188-.16.463-.16.65 0l10.395 8.92c.11.094.175.232.175.38v13.24c0 1.025-.832 1.86-1.857 1.86zM1 9.648v13.01c0 .474.385.86.857.86H20.02c.474 0 .858-.387.858-.86V9.648l-9.897-8.49L1 9.648zm19.02 14.87H1.858c-.774 0-1.454-.47-1.732-1.2-.074-.195-.02-.414.134-.552l10.347-9.23c.19-.168.477-.168.666 0l10.348 9.23c.156.138.21.356.137.55-.273.72-.97 1.202-1.735 1.202zM1.23 23.24c.158.174.383.278.627.278H20.02c.242 0 .47-.105.628-.278l-9.71-8.66-9.71 8.66zm12.895-6.056c-.138 0-.274-.057-.373-.167-.184-.207-.166-.522.04-.706l7.162-6.385c.207-.184.52-.166.706.04.184.207.166.522-.04.706l-7.162 6.388c-.096.085-.215.127-.333.127zm-6.315.048c-.12 0-.238-.042-.334-.127L.26 10.67c-.207-.184-.225-.5-.04-.706.182-.206.498-.224.705-.04l7.217 6.436c.206.184.224.5.04.706-.1.11-.236.166-.373.166z" fill="#1C00AE"/></svg>